<?xml version="1.0" encoding="utf-8"?>
<!-- Generator: Adobe Illustrator 21.0.0, SVG Export Plug-In . SVG Version: 6.00 Build 0)  -->
<svg version="1.1" id="Layer_1" xmlns="http://www.w3.org/2000/svg" xmlns:xlink="http://www.w3.org/1999/xlink" x="0px" y="0px"
	 viewBox="0 0 276 99" style="enable-background:new 0 0 276 99;" xml:space="preserve">
<style type="text/css">
	.st0{fill:#FFFFFF;}
	.st1{fill:#EE3124;}
</style>
<rect width="276" height="99"/>
<path class="st0" d="M124.7,59.9l-2,10.1h-7.4l9.3-42.2h9.1l8.4,42.2h-7.5l-2-10.1H124.7z M131.9,54l-1.5-9.1
	c-0.4-2.6-1-6.7-1.4-9.6h-0.2c-0.5,2.9-1.1,7.1-1.6,9.6l-1.7,9.1H131.9z"/>
<path class="st0" d="M166.6,26.8v34.5c0,2.7,0.1,6.1,0.3,8.7h-6.6l-0.4-3.5h-0.2c-1.1,2.2-3.5,4-6.4,4c-6.3,0-9.4-6.9-9.4-15.7
	c0-10.7,4.7-15.9,9.7-15.9c2.7,0,4.4,1.3,5.2,3.2h0.1V26.8H166.6z M159,51.2c0-0.6,0-1.2-0.1-1.8c-0.3-2.1-1.4-4-3.2-4
	c-3.1,0-4.2,4.4-4.2,9.6c0,5.9,1.6,9.3,4.1,9.3c1.1,0,2.4-0.6,3.2-3.1c0.2-0.5,0.3-1.2,0.3-1.9v-8.1H159z"/>
<path class="st0" d="M182.4,70.6c-7,0-11.4-5.6-11.4-15.7c0-11,5.7-15.9,11.6-15.9c6.9,0,11.3,5.9,11.3,15.7
	C193.8,67.3,187,70.6,182.4,70.6L182.4,70.6z M182.5,64.7c2.9,0,3.6-5.5,3.6-10c0-4.3-0.7-9.9-3.8-9.9c-3.2,0-3.9,5.6-3.9,9.9
	C178.5,59.9,179.3,64.7,182.5,64.7L182.5,64.7z"/>
<path class="st0" d="M198.1,26.8h7.6v15.9h0.1c1.5-2.4,3.5-3.7,6.4-3.7c5.8,0,8.6,6.5,8.6,15c0,10.8-4.3,16.5-9.9,16.5
	c-2.7,0-4.4-1.2-6-4.2h-0.2l-0.4,3.7h-6.5c0.1-2.5,0.3-6,0.3-8.7V26.8z M205.7,59.1c0,0.8,0.1,1.5,0.3,2c0.8,2.6,2.1,3.2,3.1,3.2
	c2.9,0,4.1-3.7,4.1-9.7c0-5.4-1.3-9.2-4.2-9.2c-1.4,0-2.7,1.6-3.1,3.2c-0.2,0.5-0.3,1.4-0.3,1.9v8.6H205.7z"/>
<path class="st0" d="M231.4,57.2c0.1,5.5,3,7.3,6.6,7.3c2.3,0,4.3-0.5,5.7-1.1l1,5.5c-2,0.9-5.1,1.4-8.1,1.4
	c-8.2,0-12.7-5.6-12.7-15.1c0-10.2,5.2-16.3,12-16.3c6.5,0,10.2,5.4,10.2,14.3c0,2-0.1,3.2-0.2,4L231.4,57.2z M239.1,51.9
	c0-4.3-1.2-7.3-3.6-7.3c-2.8,0-3.9,4-4,7.3H239.1z"/>
<polygon class="st1" points="63.5,16.4 90.5,16.4 90.5,80.9 "/>
<polygon class="st1" points="44.4,16.4 17.3,16.4 17.3,80.9 "/>
<polygon class="st1" points="53.9,40.2 71.2,80.9 59.9,80.9 54.7,68 42.1,68 "/>
<path d="M97.3,16.2c1.9,0,3.4,1.5,3.4,3.4S99.2,23,97.3,23s-3.5-1.5-3.5-3.4C93.8,17.8,95.3,16.2,97.3,16.2L97.3,16.2z M97.2,16.8
	c-1.5,0-2.7,1.3-2.7,2.9s1.2,2.9,2.8,2.9c1.5,0,2.7-1.3,2.7-2.9C100,18.1,98.8,16.8,97.2,16.8L97.2,16.8z M96.6,21.7h-0.7v-3.8
	c0.3,0,0.6-0.1,1.1-0.1c0.6,0,1,0.1,1.2,0.3c0.2,0.2,0.3,0.4,0.3,0.8c0,0.5-0.3,0.8-0.7,0.9l0,0c0.3,0.1,0.6,0.4,0.6,0.9
	c0.1,0.6,0.2,0.8,0.2,0.9h-0.7c-0.1-0.1-0.2-0.5-0.2-1c-0.1-0.5-0.3-0.6-0.8-0.6h-0.4L96.6,21.7L96.6,21.7z M96.6,19.5H97
	c0.5,0,0.9-0.2,0.9-0.6c0-0.3-0.2-0.6-0.9-0.6c-0.2,0-0.3,0-0.4,0V19.5z"/>
</svg>
