<?xml version="1.0" encoding="utf-8"?>
<!-- Generator: Adobe Illustrator 21.0.0, SVG Export Plug-In . SVG Version: 6.00 Build 0)  -->
<svg version="1.1" id="Layer_1" xmlns="http://www.w3.org/2000/svg" xmlns:xlink="http://www.w3.org/1999/xlink" x="0px" y="0px"
	 viewBox="0 0 561 707" style="enable-background:new 0 0 561 707;" xml:space="preserve">
<style type="text/css">
	.st0{fill:#FFFFFF;}
</style>
<path class="st0" d="M96.1,80.3c-29.8,0-53.6,20.8-53.6,53.6c0,26.8,19.8,49.6,50.6,49.6c27.8,0,52.6-15.9,52.6-51.6
	C145.7,104.2,125.8,80.3,96.1,80.3z"/>
<path class="st0" d="M404,707c2.6-6.3,2.2-15.7-2.7-19.3l-35.7-3c-35.7-3-37.7-14.9-37.7-86.3V389c0-26.8,0-28.8,16.9-28.8h106.2
	c10.9-4,17.9-31.8,6.9-41.7H344.7c-16.9,0-16.9-1-16.9-27.8V262c0-49.6,4-122.1,21.8-167.7c14.9-35.7,39.7-54.6,70.5-54.6
	c32.7,0,60.5,21.8,79.4,43.7c6.9,7.9,12.9,11.9,23.8,11.9c18.9,0,37.7-15.9,37.7-35.7C561,23.9,516.4,0,463.8,0
	c-98.2,0-153.8,69.5-178.6,126c-23.8,55.6-30.8,117.1-30.8,174.7c0,9.9-6.9,15.9-14.9,19.8l-42.7,20.8c-4,6-3,14.9,3,18.9h34.7
	c19.8,0,19.8,2,19.8,28.8v209.4c0,71.5-1,81.4-37.7,86.3l-22.1,2.9l-20.1-2.9c-35.7-5-37.7-14.9-37.7-86.3V419.8
	c0-40.7,2-88.3,4-123.1c-1-4-5-6-9.9-6c-22.8,14.9-79.4,40.7-102.2,48.6c-5,3-5,13.9-1,17.9l8.9,6c26.8,17.9,26.8,22.8,26.8,61.5
	v173.7c0,71.5-1,81.4-37.7,86.3l-20.8,3c-4.9,3.5-5.3,13-2.7,19.3H404z"/>
</svg>
